<svg id="Layer_1" data-name="Layer 1" xmlns="http://www.w3.org/2000/svg" viewBox="0 0 350.08 129.52"><defs><style>.cls-1{fill:#fff;}</style></defs><title>Artboard 5</title><path class="cls-1" d="M33.31,50.21A16.65,16.65,0,0,0,50,33.56H33.31Z"/><path class="cls-1" d="M164.75,66.07H181.4V49.42A16.65,16.65,0,0,0,164.75,66.07Z"/><path class="cls-1" d="M33.31,66.07V96.21H50V49.42A16.65,16.65,0,0,0,33.31,66.07Z"/><rect class="cls-1" x="146.51" y="49.42" width="15.86" height="46.79"/><path class="cls-1" d="M219.26,75c0,5.4-3,9.31-8.67,9.31s-7.29-4.1-7.29-9.11V49.42H187.54V79.5c0,5.1.49,8.8,4.14,12.61,3.55,3.6,8,4.9,12.9,4.9,6,0,10.94-1.8,14.68-6.7v5.91h15.85V49.42H219.26Z"/><path class="cls-1" d="M87.14,48.63c-6,0-10.94,1.8-14.68,6.7V49.42H56.6V96.21H72.45V70.64c0-5.4,3-9.3,8.67-9.3s7.29,4.1,7.29,9.11V96.21h15.76V66.14c0-5.1-.49-8.8-4.14-12.61C96.49,49.93,92.06,48.63,87.14,48.63Z"/><path class="cls-1" d="M130,33.56H115V49.42h-6.8V62.11H115V81.29c0,4.61.17,8,2.1,10.87,3,4.42,9.66,4.77,14.54,4.84a32.85,32.85,0,0,0,8.26-1.06l0-10.95s-3.56.26-6.17.26c-3.78,0-3.78-2.49-3.68-5.44V62.14h9.88V49.42H130Z"/><path class="cls-1" d="M314.34,54.65c-2.72-4.05-7.68-6-12.45-6a16.59,16.59,0,0,0-15,8.4c-3.5-5.93-8.27-8.4-15-8.4-6,0-9.92,2-14.2,6.22V49.42h-15.9V96.21h15.9V72c0-2.27,0-5.53,1.07-7.61a7.16,7.16,0,0,1,6-3.75c5.15,0,6.81,4.64,6.81,9V96.21h15.56V72c0-2.37,0-4.74,1.07-6.92A7.22,7.22,0,0,1,294.7,61c6.22,0,6.52,6.42,6.52,11.07V96.21h15.56V65C316.77,61.47,316.38,57.72,314.34,54.65Z"/></svg>